<?xml version="1.0" encoding="utf-8"?>
<!-- Generator: Adobe Illustrator 14.0.0, SVG Export Plug-In . SVG Version: 6.00 Build 43363)  -->
<!DOCTYPE svg PUBLIC "-//W3C//DTD SVG 1.1//EN" "http://www.w3.org/Graphics/SVG/1.1/DTD/svg11.dtd">
<svg version="1.1" id="Calque_1" xmlns="http://www.w3.org/2000/svg" xmlns:xlink="http://www.w3.org/1999/xlink" x="0px" y="0px"
	 width="1024px" height="200px" viewBox="0 0 1024 200" enable-background="new 0 0 1024 200" xml:space="preserve">
<g>
	<path fill="none" stroke="#8CC63F" stroke-width="10" d="M12.075,90.708c250.667-130.333,198.667,38.333,455.666,22.333"/>
	<path fill="none" stroke="#29ABE2" stroke-width="10" d="M442.575,147.041c-215,38-189-272-408-40.5"/>
	<g>
		<rect x="482.077" y="117.862" fill="none" width="609.332" height="91.331"/>
		<path fill="#8CC63F" d="M517.628,116.719c3.838,0,7.456,0.543,10.854,1.627c1.523,0.498,2.563,0.746,3.12,0.746
			c0.586,0,1.816-0.336,3.691-1.01c0.615-0.205,1.245-0.309,1.89-0.309c1.641,0,3.208,0.967,4.702,2.9
			c2.401,3.105,3.604,6.504,3.604,10.195c0,2.521-0.638,4.557-1.911,6.109c-1.275,1.553-2.952,2.328-5.032,2.328
			c-1.699,0-3.369-0.615-5.01-1.846c-0.499-0.38-1.714-1.758-3.647-4.131c-3.223-3.955-6.929-5.932-11.118-5.932
			c-3.809,0-6.833,1.391-9.075,4.174c-2.241,2.784-3.362,6.533-3.362,11.25c0,7.003,1.787,12.965,5.361,17.887
			c1.348,1.787,2.959,3.215,4.834,4.284s3.735,1.604,5.581,1.604c1.522,0,2.775-0.506,3.757-1.517
			c0.982-1.011,1.473-2.308,1.473-3.89c0-1.406-0.41-2.401-1.23-2.988c-0.322-0.234-0.623-0.373-0.9-0.417
			c-0.279-0.044-1.121-0.065-2.527-0.065c-1.26,0-2.307-0.402-3.143-1.209c-0.834-0.806-1.252-1.824-1.252-3.055
			c0-2.432,1.611-4.159,4.834-5.186c3.545-1.113,7.631-1.67,12.261-1.67c4.95,0,9.111,0.514,12.48,1.539
			c3.192,0.996,4.79,2.797,4.79,5.404c0,1.055-0.367,1.971-1.099,2.747c-0.732,0.776-1.685,1.237-2.856,1.384
			c-1.025,0.147-1.691,0.374-2,0.682c-0.307,0.308-0.622,1.063-0.944,2.264c-1.26,4.658-3.721,8.555-7.383,11.689
			c-2.521,2.139-5.56,3.809-9.118,5.01c-3.561,1.201-7.303,1.801-11.229,1.801c-6.416,0-12.305-1.479-17.666-4.438
			c-5.508-3.018-9.697-7.236-12.568-12.656c-2.402-4.512-3.604-9.39-3.604-14.635c0-5.302,1.435-10.342,4.307-15.117
			c3.047-5.126,7.31-9.081,12.788-11.865C506.055,117.949,511.504,116.719,517.628,116.719z"/>
		<path fill="#8CC63F" d="M577.523,134.43c1.553,0,2.498,0.219,2.834,0.658c0.337,0.439,0.638,1.846,0.901,4.219
			c0.146,1.29,0.601,1.934,1.362,1.934c0.586,0,1.143-0.424,1.67-1.273c2.344-3.662,5.405-5.494,9.185-5.494
			c2.665,0,4.849,0.865,6.548,2.594c0.82,0.85,1.494,1.94,2.021,3.273c0.527,1.334,0.791,2.615,0.791,3.846
			c0,1.377-0.322,2.79-0.967,4.24s-1.479,2.645-2.505,3.582c-1.875,1.787-4.175,2.68-6.899,2.68c-1.494,0-2.746-0.264-3.758-0.791
			c-1.01-0.527-2.336-1.596-3.977-3.207c-0.615-0.615-1.187-0.924-1.714-0.924c-0.82,0-1.355,0.462-1.604,1.385
			c-0.248,0.923-0.373,2.863-0.373,5.822c0,4.424,0.16,7.442,0.483,9.053c0.204,0.879,0.49,1.488,0.856,1.824
			c0.367,0.337,1.15,0.682,2.352,1.033c2.637,0.791,3.955,2.168,3.955,4.131c0,1.201-0.425,2.248-1.274,3.142
			c-0.851,0.894-1.978,1.487-3.384,1.78c-2.813,0.586-6.943,0.879-12.393,0.879c-5.186,0-9.126-0.455-11.821-1.363
			c-2.402-0.819-3.604-2.24-3.604-4.262c0-1.523,0.879-2.886,2.637-4.088c0.85-0.556,1.435-1.061,1.758-1.516
			c0.322-0.454,0.542-1.076,0.659-1.867c0.469-2.666,0.703-7.604,0.703-14.811c0-1.318-0.146-2.263-0.439-2.834
			s-0.879-1.033-1.758-1.385c-2.08-0.819-3.12-2.006-3.12-3.559c0-1.406,0.718-2.615,2.153-3.626s3.838-2.015,7.207-3.011
			C570.521,135.147,574.359,134.459,577.523,134.43z"/>
		<path fill="#8CC63F" d="M646.561,158.248h-20.654c-0.908,0-1.363,0.395-1.363,1.186c0,1.905,1.033,3.699,3.1,5.384
			c2.064,1.685,4.283,2.526,6.656,2.526c1.406,0,2.967-0.27,4.682-0.813c1.713-0.542,3.127-1.209,4.24-2
			c0.996-0.703,1.787-1.055,2.373-1.055c0.762,0,1.508,0.469,2.24,1.406c0.732,0.938,1.1,1.905,1.1,2.9
			c0,2.109-1.318,4.146-3.955,6.109c-4.658,3.486-10.035,5.229-16.129,5.229c-6.152,0-11.309-1.786-15.469-5.361
			c-2.021-1.758-3.691-3.881-5.01-6.371c-1.729-3.311-2.592-6.797-2.592-10.459c0-4.922,1.494-9.346,4.482-13.271
			c2.578-3.398,5.859-5.934,9.844-7.604c2.988-1.259,6.225-1.889,9.711-1.889c5.566,0,10.299,1.582,14.195,4.746
			c1.963,1.582,3.545,3.457,4.746,5.625c1.377,2.461,2.064,4.863,2.064,7.207c0,1.904-0.395,3.465-1.186,4.68
			C648.846,157.64,647.82,158.248,646.561,158.248z M627.049,150.029h4.438c1.875,0,2.813-0.863,2.813-2.592
			c0-1.582-0.453-2.871-1.361-3.867s-2.096-1.494-3.561-1.494c-1.641,0-2.93,0.645-3.867,1.934
			c-0.879,1.201-1.318,2.416-1.318,3.646c0,0.879,0.213,1.494,0.639,1.846C625.254,149.854,625.994,150.029,627.049,150.029z"/>
		<path fill="#8CC63F" d="M696.086,158.248h-20.654c-0.908,0-1.363,0.395-1.363,1.186c0,1.905,1.033,3.699,3.1,5.384
			c2.064,1.685,4.283,2.526,6.656,2.526c1.406,0,2.967-0.27,4.682-0.813c1.713-0.542,3.127-1.209,4.24-2
			c0.996-0.703,1.787-1.055,2.373-1.055c0.762,0,1.508,0.469,2.24,1.406c0.732,0.938,1.1,1.905,1.1,2.9
			c0,2.109-1.318,4.146-3.955,6.109c-4.658,3.486-10.035,5.229-16.129,5.229c-6.152,0-11.309-1.786-15.469-5.361
			c-2.021-1.758-3.691-3.881-5.01-6.371c-1.729-3.311-2.592-6.797-2.592-10.459c0-4.922,1.494-9.346,4.482-13.271
			c2.578-3.398,5.859-5.934,9.844-7.604c2.988-1.259,6.225-1.889,9.711-1.889c5.566,0,10.299,1.582,14.195,4.746
			c1.963,1.582,3.545,3.457,4.746,5.625c1.377,2.461,2.064,4.863,2.064,7.207c0,1.904-0.395,3.465-1.186,4.68
			C698.371,157.64,697.346,158.248,696.086,158.248z M676.574,150.029h4.438c1.875,0,2.813-0.863,2.813-2.592
			c0-1.582-0.453-2.871-1.361-3.867s-2.096-1.494-3.561-1.494c-1.641,0-2.93,0.645-3.867,1.934
			c-0.879,1.201-1.318,2.416-1.318,3.646c0,0.879,0.213,1.494,0.639,1.846C674.779,149.854,675.52,150.029,676.574,150.029z"/>
		<path fill="#8CC63F" d="M758.311,150.381l0.615,15.469c0.059,1.172,0.242,2.037,0.549,2.594c0.309,0.557,1.209,1.625,2.703,3.207
			c0.439,0.469,0.658,1.129,0.658,1.979c0,1.934-1.156,3.281-3.471,4.043s-6.445,1.143-12.393,1.143c-4.043,0-6.9-0.352-8.57-1.055
			c-1.729-0.732-2.592-1.919-2.592-3.561c0-0.586,0.088-1.018,0.264-1.296s0.762-0.96,1.758-2.044
			c1.172-1.23,1.758-5.332,1.758-12.305c0-4.043-0.469-7.031-1.406-8.965c-0.762-1.553-2.168-2.328-4.219-2.328
			c-1.963,0-3.311,0.63-4.043,1.889c-0.732,1.26-1.1,3.545-1.1,6.855v8.701c0,1.729,0.111,2.916,0.33,3.561
			c0.221,0.645,0.945,1.889,2.176,3.734c0.322,0.527,0.482,1.129,0.482,1.803c0,1.729-1.201,3.003-3.604,3.822
			c-2.402,0.82-6.152,1.23-11.25,1.23c-8.145,0-12.217-1.684-12.217-5.053c0-0.703,0.125-1.238,0.375-1.604
			c0.248-0.366,0.842-0.886,1.779-1.56c0.762-0.557,1.244-1.193,1.449-1.912c0.205-0.718,0.396-2.482,0.572-5.295
			c0.205-3.34,0.307-6.841,0.307-10.504c0-2.021-0.152-3.346-0.461-3.977c-0.307-0.63-1.193-1.398-2.658-2.307
			c-1.26-0.791-1.891-1.758-1.891-2.9c0-1.172,0.514-2.132,1.539-2.879s3.135-1.691,6.328-2.834
			c2.813-0.996,5.521-1.839,8.129-2.527c2.607-0.688,4.395-1.033,5.361-1.033c0.879,0,1.619,0.323,2.221,0.967
			c0.6,0.645,0.9,1.406,0.9,2.285c0,0.088-0.016,0.455-0.045,1.1c-0.029,0.234-0.043,0.439-0.043,0.615
			c0,1.406,0.586,2.109,1.758,2.109c0.703,0,1.449-0.557,2.24-1.67c2.52-3.633,6.182-5.449,10.986-5.449
			c3.691,0,6.855,0.967,9.492,2.9c1.846,1.377,3.135,2.995,3.867,4.855C757.68,144.047,758.135,146.777,758.311,150.381z"/>
		<path fill="#29ABE2" d="M806.34,133.551l-1.273-3.076c-0.791-1.787-1.773-2.974-2.945-3.561c-2.109-1.113-3.164-2.52-3.164-4.219
			c0-3.75,5.625-5.625,16.875-5.625c5.625,0,9.902,0.455,12.832,1.363c0.996,0.322,1.795,0.834,2.396,1.537
			c0.6,0.703,0.9,1.48,0.9,2.33c0,0.732-0.141,1.289-0.418,1.67c-0.279,0.381-1.047,1.127-2.307,2.24
			c-0.732,0.615-1.1,1.26-1.1,1.934c0,1.026,0.557,2.725,1.67,5.098l2.506,5.361c1.143,2.433,1.955,3.978,2.439,4.637
			c0.482,0.659,1.031,0.988,1.646,0.988c0.674,0,1.254-0.38,1.736-1.143c0.484-0.762,1.105-2.256,1.867-4.482l2.109-6.152
			c0.586-1.758,0.879-3.076,0.879-3.955c0-1.171-0.615-1.947-1.846-2.328c-2.461-0.791-3.691-2.197-3.691-4.219
			c0-1.758,0.953-3.018,2.857-3.779s5.039-1.143,9.404-1.143c2.842,0,5.053,0.322,6.635,0.967c2.197,0.879,3.297,2.285,3.297,4.219
			c0,0.85-0.197,1.582-0.594,2.197c-0.395,0.615-1.193,1.436-2.395,2.461c-0.791,0.674-1.4,1.391-1.824,2.152
			c-0.426,0.763-1.076,2.33-1.955,4.703l-7.691,20.434c-3.838,9.521-6.152,15.191-6.943,17.008s-1.611,3.442-2.461,4.877
			c-0.645,1.055-1.361,1.795-2.152,2.22s-1.846,0.638-3.164,0.638c-1.758,0-3.172-0.381-4.24-1.143
			c-1.07-0.762-1.971-2.021-2.703-3.779l-8.701-20.654c-0.469-1.143-0.82-1.861-1.055-2.154c-0.234-0.292-0.557-0.439-0.967-0.439
			c-0.615,0-1.143,0.367-1.582,1.1s-1.275,2.621-2.506,5.668l-5.977,14.854c-1.113,2.696-2.174,4.477-3.186,5.34
			c-1.01,0.863-2.541,1.297-4.592,1.297c-1.846,0-3.305-0.439-4.373-1.318c-1.07-0.879-2.043-2.432-2.922-4.658l-16.172-41.354
			c-0.674-1.698-1.137-2.702-1.385-3.01c-0.25-0.308-1.033-0.813-2.352-1.516c-1.494-0.762-2.24-2.051-2.24-3.867
			c0-4.131,5.127-6.197,15.381-6.197c5.244,0,9.037,0.367,11.381,1.1c2.256,0.732,3.385,2.182,3.385,4.35
			c0,0.675-0.059,1.165-0.176,1.473s-0.543,0.988-1.275,2.043c-0.352,0.557-0.527,1.246-0.527,2.066
			c0,1.465,0.982,4.512,2.945,9.141l1.801,4.219c0.762,1.758,1.268,2.819,1.518,3.186c0.248,0.367,0.607,0.549,1.076,0.549
			c1.143,0,2.314-1.625,3.516-4.877l1.801-5.01c0.146-0.352,0.221-0.631,0.221-0.836
			C806.561,134.238,806.486,133.932,806.34,133.551z"/>
		<path fill="#29ABE2" d="M883.066,134.121c5.098,0,9.42,1.29,12.965,3.867c1.875,1.378,3.186,2.952,3.934,4.725
			c0.746,1.773,1.119,4.212,1.119,7.316l-0.088,6.549c0,4.541,0.322,7.485,0.967,8.832c0.322,0.645,0.631,1.055,0.924,1.23
			s0.908,0.338,1.846,0.484s1.406,0.762,1.406,1.846c0,1.406-0.564,2.871-1.691,4.395c-1.129,1.523-2.586,2.797-4.373,3.822
			c-2.197,1.289-4.498,1.934-6.9,1.934c-3.076,0-5.508-1.055-7.295-3.164c-0.615-0.762-1.186-1.143-1.713-1.143
			c-0.586,0-1.363,0.367-2.33,1.1c-2.93,2.138-6.254,3.207-9.975,3.207c-3.838,0-6.943-0.82-9.316-2.461
			c-1.553-1.083-2.783-2.497-3.691-4.24c-0.908-1.742-1.363-3.566-1.363-5.471c0-3.047,1.23-5.742,3.691-8.086
			c3.838-3.691,9.58-5.553,17.227-5.582c1.699,0,2.77-0.168,3.209-0.505s0.658-1.12,0.658-2.351c0-3.105-0.322-5.354-0.967-6.746
			c-0.645-1.391-1.699-2.088-3.164-2.088c-0.879,0-1.662,0.264-2.35,0.791c-0.689,0.527-1.547,1.494-2.572,2.9
			c-2.607,3.721-5.332,5.582-8.174,5.582c-1.436,0-2.607-0.425-3.516-1.275c-0.908-0.85-1.361-1.962-1.361-3.34
			c0-1.406,0.563-2.813,1.691-4.219c1.127-1.406,2.658-2.637,4.592-3.691C871.758,135.527,877.295,134.121,883.066,134.121z
			 M880.123,159.566c-1.289,0-2.41,0.527-3.361,1.582c-0.953,1.055-1.43,2.314-1.43,3.779c0,1.406,0.338,2.541,1.012,3.405
			s1.566,1.296,2.68,1.296c2.344,0,3.516-1.977,3.516-5.932c0-1.611-0.168-2.695-0.504-3.252
			C881.697,159.889,881.061,159.596,880.123,159.566z"/>
		<path fill="#29ABE2" d="M954.432,147.92l-11.381,22.148c-1.758,3.428-3.252,5.809-4.482,7.142s-2.549,1.999-3.955,1.999
			c-1.377,0-2.49-0.498-3.34-1.494c-1.787-1.992-3.355-4.247-4.703-6.768l-12.48-23.686c-0.674-1.289-1.326-2.22-1.955-2.791
			c-0.631-0.571-1.502-1.004-2.615-1.297c-2.227-0.644-3.34-1.846-3.34-3.604c0-1.786,1.377-3.09,4.131-3.91s7.105-1.23,13.053-1.23
			c4.98,0,8.648,0.358,11.008,1.076c2.357,0.719,3.537,1.824,3.537,3.318c0,1.055-0.557,2.064-1.67,3.031
			c-0.703,0.645-1.156,1.129-1.361,1.451s-0.309,0.732-0.309,1.23c0,0.996,0.645,2.651,1.934,4.965
			c1.289,2.257,2.49,3.385,3.604,3.385c0.732,0,1.334-0.279,1.803-0.836c0.469-0.556,1.318-1.992,2.549-4.307
			c0.908-1.698,1.361-2.988,1.361-3.867c0-0.703-0.469-1.537-1.406-2.504c-0.996-1.055-1.494-2.037-1.494-2.945
			c0-1.406,0.93-2.416,2.791-3.031c1.859-0.615,4.914-0.924,9.162-0.924c5.977,0,8.965,1.29,8.965,3.867
			c0,1.494-1.068,2.578-3.207,3.252c-1.67,0.527-2.807,1.1-3.406,1.715C956.621,143.922,955.691,145.459,954.432,147.92z"/>
		<path fill="#29ABE2" d="M1004.484,158.248H983.83c-0.908,0-1.361,0.395-1.361,1.186c0,1.905,1.033,3.699,3.098,5.384
			c2.066,1.685,4.285,2.526,6.658,2.526c1.406,0,2.967-0.27,4.68-0.813c1.715-0.542,3.127-1.209,4.24-2
			c0.996-0.703,1.787-1.055,2.373-1.055c0.762,0,1.51,0.469,2.242,1.406c0.732,0.938,1.098,1.905,1.098,2.9
			c0,2.109-1.318,4.146-3.955,6.109c-4.658,3.486-10.033,5.229-16.127,5.229c-6.152,0-11.309-1.786-15.469-5.361
			c-2.021-1.758-3.691-3.881-5.01-6.371c-1.729-3.311-2.594-6.797-2.594-10.459c0-4.922,1.494-9.346,4.482-13.271
			c2.578-3.398,5.859-5.934,9.844-7.604c2.988-1.259,6.227-1.889,9.713-1.889c5.566,0,10.297,1.582,14.193,4.746
			c1.963,1.582,3.545,3.457,4.746,5.625c1.377,2.461,2.066,4.863,2.066,7.207c0,1.904-0.396,3.465-1.188,4.68
			C1006.77,157.64,1005.744,158.248,1004.484,158.248z M984.973,150.029h4.439c1.875,0,2.813-0.863,2.813-2.592
			c0-1.582-0.455-2.871-1.363-3.867s-2.094-1.494-3.559-1.494c-1.641,0-2.93,0.645-3.867,1.934
			c-0.879,1.201-1.318,2.416-1.318,3.646c0,0.879,0.211,1.494,0.637,1.846C983.178,149.854,983.918,150.029,984.973,150.029z"/>
	</g>
</g>
</svg>
